<svg width="27" height="32" viewBox="0 0 27 32" fill="none" xmlns="http://www.w3.org/2000/svg">
<path fill-rule="evenodd" clip-rule="evenodd" d="M22.0208 16.8431C22.0526 14.3791 23.3443 12.1032 25.4435 10.8126C24.1132 8.91273 21.9649 7.75135 19.6467 7.67882C17.2078 7.42282 14.8434 9.13823 13.6005 9.13823C12.3337 9.13823 10.4201 7.70423 8.35957 7.74663C5.64841 7.83422 3.18215 9.33831 1.86311 11.7086C-0.945822 16.5718 1.14939 23.7191 3.84012 27.6502C5.18634 29.5751 6.7597 31.7253 8.8184 31.6491C10.833 31.5655 11.5854 30.3645 14.0171 30.3645C16.4263 30.3645 17.1322 31.6491 19.2327 31.6006C21.3944 31.5655 22.7564 29.6671 24.0554 27.724C25.0226 26.3524 25.7669 24.8365 26.2607 23.2324C23.6933 22.1465 22.0238 19.6307 22.0208 16.8431Z" fill="white"/>
<path fill-rule="evenodd" clip-rule="evenodd" d="M18.0534 5.09345C19.2321 3.67851 19.8127 1.85985 19.6721 0.0236816C17.8714 0.212814 16.208 1.07344 15.0135 2.43409C13.8339 3.77656 13.2363 5.53286 13.3523 7.31617C15.1772 7.33496 16.9099 6.51573 18.0534 5.09345Z" fill="white"/>
</svg>
