<svg width="29" height="35" viewBox="0 0 29 35" fill="none" xmlns="http://www.w3.org/2000/svg">
<path fill-rule="evenodd" clip-rule="evenodd" d="M24.081 18.9163C24.1155 16.2387 25.5192 13.7654 27.8004 12.363C26.3548 10.2984 24.0202 9.03632 21.5011 8.9575C18.8507 8.67931 16.2813 10.5434 14.9307 10.5434C13.554 10.5434 11.4746 8.98512 9.23538 9.0312C6.28917 9.12638 3.6091 10.7609 2.17571 13.3366C-0.87675 18.6215 1.40011 26.3884 4.32411 30.6603C5.78705 32.7521 7.4968 35.0888 9.73398 35.0059C11.9232 34.9151 12.7408 33.6099 15.3834 33.6099C18.0014 33.6099 18.7685 35.0059 21.0511 34.9532C23.4002 34.9151 24.8803 32.8521 26.2919 30.7405C27.343 29.25 28.1519 27.6026 28.6885 25.8595C25.8984 24.6795 24.0842 21.9456 24.081 18.9163Z" fill="black"/>
<path fill-rule="evenodd" clip-rule="evenodd" d="M19.7696 6.14845C21.0505 4.61085 21.6815 2.63451 21.5287 0.63916C19.5719 0.844689 17.7643 1.77993 16.4661 3.25854C15.1843 4.71739 14.5349 6.62596 14.661 8.56387C16.6441 8.58429 18.527 7.69404 19.7696 6.14845Z" fill="black"/>
</svg>
