<?xml version="1.0" encoding="UTF-8"?>
<svg id="Layer_2" data-name="Layer 2" xmlns="http://www.w3.org/2000/svg" viewBox="0 0 1860.25 408.02">
  <defs>
    <style>
      .cls-1, .cls-2 {
        fill: #fff;
      }

      .cls-2 {
        fill-rule: evenodd;
      }
    </style>
  </defs>
  <g id="_Слой_1" data-name="Слой 1">
    <g>
      <g>
        <path class="cls-2" d="M182.59,405.71H0l31.18-116.38H301.55l-7.67,28.61c-12.93,48.27-63.01,87.77-111.28,87.77Z"/>
        <path class="cls-2" d="M380.87,137.66l-72.44,270.36c209.27,0,176.43-270.36,72.44-270.36Z"/>
        <path class="cls-2" d="M362.32,2.37h182.59l-31.18,116.38H243.37l7.67-28.61C263.97,41.86,314.05,2.37,362.32,2.37Z"/>
        <path class="cls-2" d="M161.79,270.36L234.24,0C24.97,0,57.81,270.36,161.79,270.36Z"/>
      </g>
      <g>
        <path class="cls-1" d="M663.12,57.74c5.82-41.45,32.78-57.74,88.05-57.74,48.12,0,75.58,15.3,69.48,58.72h-44.42c1.94-13.82-15.58-15.54-35.57-15.54-18.26,0-27.87,3.45-28.91,10.86-1.04,7.4,7.77,7.9,39.48,12.34,41.61,5.92,67.9,19,62.39,58.23-5.51,39.23-32.96,55.52-88.98,55.52-48.86,0-76.81-15.3-70.71-58.72h44.42c-1.94,13.82,16.32,15.54,37.05,15.54,19,0,28.69-2.22,29.76-9.87,1.35-9.62-20.05-10.12-43.25-13.57-38.68-5.67-63.99-18.75-58.79-55.76Z"/>
        <path class="cls-1" d="M934.75,0c59.96,0,84.5,30.84,76.19,90.06-8.31,59.22-41.51,90.06-101.47,90.06s-84.5-30.84-76.19-90.06C841.59,30.84,874.79,0,934.75,0Zm-19.23,136.94c27.64,0,42.93-15.79,47.3-46.88,4.37-31.09-6.5-46.88-34.13-46.88-30.1,0-42.93,15.79-47.3,46.88-4.37,31.09,6.5,46.88,34.13,46.88Z"/>
        <path class="cls-1" d="M1025.73,90.06c8.52-60.7,41.02-90.06,99.99-90.06,54.29,0,82.63,17.77,76.19,63.66h-44.42c2.29-16.28-18.1-20.48-37.84-20.48-28.62,0-41.21,14.06-45.78,46.63-4.64,33.06,7.94,47.13,38.54,47.13,17.27,0,36.06-1.97,38.34-18.26h44.41c-6.44,45.89-40.46,61.44-88.57,61.44-63.17,0-89.4-29.36-80.87-90.06Z"/>
        <path class="cls-1" d="M1228.59,3.7h46.88l-24.25,172.72h-46.88L1228.59,3.7Z"/>
        <path class="cls-1" d="M1348.75,3.7h50.09l41.63,172.72h-50.09l-5.48-22.45h-64.4l-11.79,22.45h-50.09L1348.75,3.7Zm26,108.32l-10.05-42.69-22.28,42.69h32.32Z"/>
        <path class="cls-1" d="M1472.12,3.7h46.88l-18.36,130.77h93.77l-5.89,41.95h-140.65L1472.12,3.7Z"/>
      </g>
      <g>
        <path class="cls-1" d="M665.52,231.6h85.87c54.29,0,65.79,18.26,60.83,53.54-1.59,11.35-6.36,20.73-13.64,28.62,10.1,8.88,14.05,21.22,11.87,36.76-4.99,35.53-24.82,53.79-81.58,53.79h-87.6l24.25-172.72Zm69.24,130.77c19.74,0,26.46-3.95,27.57-11.84,1.07-7.65-4.05-11.6-23.79-11.6h-41.21l-3.29,23.44h40.71Zm4-65.39c18.51,0,24.21-3.7,25.35-11.84,1.11-7.9-4.05-11.6-22.55-11.6h-35.04l-3.29,23.44h35.53Z"/>
        <path class="cls-1" d="M893.02,231.6h50.09l41.63,172.72h-50.09l-5.48-22.45h-64.4l-11.79,22.45h-50.09l90.13-172.72Zm26,108.32l-10.05-42.69-22.28,42.69h32.32Z"/>
        <path class="cls-1" d="M1016.39,231.6h46.88l-18.36,130.77h93.77l-5.89,41.95h-140.65l24.25-172.72Z"/>
        <path class="cls-1" d="M1222.91,231.6h50.09l41.63,172.72h-50.09l-5.48-22.45h-64.4l-11.79,22.45h-50.09l90.13-172.72Zm26,108.32l-10.05-42.69-22.28,42.69h32.32Z"/>
        <path class="cls-1" d="M1346.28,231.6h46.88l53.39,94.25,13.23-94.25h46.88l-24.25,172.72h-46.88l-53.39-94.26-13.23,94.26h-46.88l24.25-172.72Z"/>
        <path class="cls-1" d="M1514.28,317.96c8.52-60.7,41.02-90.06,99.99-90.06,54.29,0,82.63,17.77,76.19,63.66h-44.42c2.29-16.28-18.1-20.48-37.84-20.48-28.62,0-41.21,14.06-45.78,46.63-4.64,33.06,7.94,47.13,38.54,47.13,17.27,0,36.06-1.97,38.34-18.26h44.41c-6.44,45.89-40.46,61.44-88.57,61.44-63.17,0-89.4-29.36-80.88-90.06Z"/>
        <path class="cls-1" d="M1717.13,231.6h143.11l-5.89,41.95h-96.23l-3.29,23.44h86.36l-5.89,41.95h-86.36l-3.29,23.44h98.7l-5.89,41.95h-145.58l24.25-172.72Z"/>
      </g>
    </g>
  </g>
</svg>