<svg width="35" height="38" viewBox="0 0 35 38" fill="none" xmlns="http://www.w3.org/2000/svg">
<path fill-rule="evenodd" clip-rule="evenodd" d="M1.29753 0.913288C0.874886 1.36063 0.626526 2.05342 0.626526 2.95245V35.0475C0.626526 35.9466 0.874886 36.6394 1.29753 37.0867L1.40501 37.1913L19.3842 19.212V18.7879L1.40501 0.808716L1.29753 0.913288Z" fill="#00D7FE"/>
<mask id="mask0_154_9" style="mask-type:alpha" maskUnits="userSpaceOnUse" x="19" y="12" width="16" height="14">
<path d="M25.3754 25.2076L19.3842 19.2121V18.788L25.3783 12.794L32.6141 16.9043C34.6417 18.0575 34.6417 19.9427 32.6141 21.0945L25.5134 25.1292L25.3754 25.2076Z" fill="white"/>
</mask>
<g mask="url(#mask0_154_9)">
<path fill-rule="evenodd" clip-rule="evenodd" d="M25.3754 25.2076L19.3842 19.2121V18.788L25.3783 12.794L32.6141 16.9043C34.6417 18.0575 34.6417 19.9427 32.6141 21.0945L25.5134 25.1292L25.3754 25.2076Z" fill="url(#paint0_linear_154_9)"/>
</g>
<mask id="mask1_154_9" style="mask-type:alpha" maskUnits="userSpaceOnUse" x="1" y="19" width="25" height="19">
<path d="M25.5134 25.1292L19.3842 19.0001L1.29755 37.0868C1.9671 37.7941 3.07092 37.8812 4.31418 37.1754L25.5134 25.1292Z" fill="white"/>
</mask>
<g mask="url(#mask1_154_9)">
<path fill-rule="evenodd" clip-rule="evenodd" d="M25.5134 25.1292L19.3842 19.0001L1.29755 37.0868C1.9671 37.7941 3.07092 37.8812 4.31418 37.1754L25.5134 25.1292Z" fill="url(#paint1_linear_154_9)"/>
</g>
<mask id="mask2_154_9" style="mask-type:alpha" maskUnits="userSpaceOnUse" x="1" y="0" width="25" height="19">
<path d="M25.5134 12.8709L4.31418 0.824725C3.07092 0.11886 1.9671 0.206004 1.29755 0.913321L19.3842 19L25.5134 12.8709Z" fill="white"/>
</mask>
<g mask="url(#mask2_154_9)">
<path fill-rule="evenodd" clip-rule="evenodd" d="M25.5134 12.8709L4.31418 0.824725C3.07092 0.11886 1.9671 0.206004 1.29755 0.913321L19.3842 19L25.5134 12.8709Z" fill="url(#paint2_linear_154_9)"/>
</g>
<defs>
<linearGradient id="paint0_linear_154_9" x1="31.2951" y1="19.0005" x2="19.3842" y2="19.0005" gradientUnits="userSpaceOnUse">
<stop stop-color="#FFBC00"/>
<stop offset="1" stop-color="#FFDA03"/>
</linearGradient>
<linearGradient id="paint1_linear_154_9" x1="22.1824" y1="24.7672" x2="6.63671" y2="37.5811" gradientUnits="userSpaceOnUse">
<stop stop-color="#E22652"/>
<stop offset="1" stop-color="#FF3A44"/>
</linearGradient>
<linearGradient id="paint2_linear_154_9" x1="4.03628" y1="3.0907" x2="14.4009" y2="12.2044" gradientUnits="userSpaceOnUse">
<stop stop-color="#0ED574"/>
<stop offset="1" stop-color="#07F076"/>
</linearGradient>
</defs>
</svg>
